<svg xmlns="http://www.w3.org/2000/svg" viewBox="0 0 32 32">
  <rect x="4" y="10" width="10" height="18" rx="1" fill="#2563eb"/>
  <rect x="18" y="4" width="10" height="24" rx="1" fill="#1d4ed8"/>
  <rect x="6" y="13" width="2.5" height="2.5" rx="0.4" fill="#bfdbfe"/>
  <rect x="9.5" y="13" width="2.5" height="2.5" rx="0.4" fill="#bfdbfe"/>
  <rect x="6" y="17" width="2.5" height="2.5" rx="0.4" fill="#bfdbfe"/>
  <rect x="9.5" y="17" width="2.5" height="2.5" rx="0.4" fill="#bfdbfe"/>
  <rect x="6" y="21" width="2.5" height="2.5" rx="0.4" fill="#bfdbfe"/>
  <rect x="9.5" y="21" width="2.5" height="2.5" rx="0.4" fill="#bfdbfe"/>
  <rect x="20" y="7" width="2.5" height="2.5" rx="0.4" fill="#bfdbfe"/>
  <rect x="23.5" y="7" width="2.5" height="2.5" rx="0.4" fill="#bfdbfe"/>
  <rect x="20" y="11" width="2.5" height="2.5" rx="0.4" fill="#bfdbfe"/>
  <rect x="23.5" y="11" width="2.5" height="2.5" rx="0.4" fill="#bfdbfe"/>
  <rect x="20" y="15" width="2.5" height="2.5" rx="0.4" fill="#bfdbfe"/>
  <rect x="23.5" y="15" width="2.5" height="2.5" rx="0.4" fill="#bfdbfe"/>
  <rect x="20" y="19" width="2.5" height="2.5" rx="0.4" fill="#bfdbfe"/>
  <rect x="23.5" y="19" width="2.5" height="2.5" rx="0.4" fill="#bfdbfe"/>
  <rect x="20" y="23" width="2.5" height="2.5" rx="0.4" fill="#bfdbfe"/>
  <rect x="23.5" y="23" width="2.5" height="2.5" rx="0.4" fill="#bfdbfe"/>
</svg>
